<svg data-v-0dd9719b="" version="1.0" xmlns="http://www.w3.org/2000/svg" xmlns:xlink="http://www.w3.org/1999/xlink" width="100%" height="100%" viewBox="0 0 340.000000 250.000000" preserveAspectRatio="xMidYMid meet" color-interpolation-filters="sRGB" style="margin: auto;"> <rect data-v-0dd9719b="" x="0" y="0" width="100%" height="100%" fill="#fff" fill-opacity="1" class="background"></rect> <rect data-v-0dd9719b="" x="0" y="0" width="100%" height="100%" fill="url(#watermark)" fill-opacity="1" class="watermarklayer"></rect> <g data-v-0dd9719b="" fill="#26333b" class="icon-text-wrapper icon-svg-group iconsvg" transform="translate(48.546791076660156,90.06916427612305)"><g class="iconsvg-imagesvg" transform="translate(0,0)"><g><rect fill="#26333b" fill-opacity="0" stroke-width="2" x="0" y="0" width="60.00000000000001" height="69.86167388570631" class="image-rect"></rect> <svg x="0" y="0" width="60.00000000000001" height="69.86167388570631" filtersec="colorsb849349724" class="image-svg-svg primary" style="overflow: visible;"><svg xmlns="http://www.w3.org/2000/svg" viewBox="0 0 284.79998779296875 331.6116638183594"><g><g fill-rule="evenodd"><path d="M284.75 206.19c0 53.87-22.93 110.13-79.83 121.21a236.64 236.64 0 0 1-45.34 4.21H32.18V100.54C49.08 111 69.25 116.33 90 119v164.79c23.74 0 69.58 3.15 95.07-2.11 36.68-7.56 39.21-57 39.21-87 0-22.29-.3-50.93-14.35-69.51 49.41 8.18 74.87 26.67 74.87 81.05" fill="#26333b"></path><path d="M0 0c0 102.41 73.46 107.93 149.11 107.55 49.47-.24 101.16 9.23 130.73 33.53-7.84-37.34-88.33-61.86-144.21-62.93 46.93-2.47 117.45 12.85 137.12 42.24C233.1 4.12 46.26 89.77 0 0" fill="#8fc740"></path></g></g></svg></svg> <!----></g></g> <g transform="translate(67,8.87458610534668)"><g data-gra="path-name" fill-rule="" class="tp-name iconsvg-namesvg" transform="translate(0,0)"><g transform="scale(1)"><g><path d="M30.69-12.43L19.83-12.43 19.83-0.53Q19.83 2.22 17.36 2.76L17.36 2.76Q17.2 2.8 16.79 2.88 16.37 2.96 16.05 2.96L16.05 2.96Q15.63 2.96 15.37 2.65 15.1 2.35 15.1 1.97L15.1 1.97Q15.1 1.6 15.37 1.32 15.63 1.03 16.13 0.95L16.13 0.95Q17.07 0.78 17.42 0.21 17.77-0.37 17.77-1.89L17.77-1.89 17.77-12.43 8.06-12.43Q7.04-12.43 6.48-13.1 5.92-13.78 5.92-14.77L5.92-14.77Q5.92-15.59 6.25-16.21L6.25-16.21Q8.02-19.58 10.61-25.1L10.61-25.1 3.54-25.1Q3.04-25.1 2.78-25.43 2.51-25.76 2.51-26.13L2.51-26.13Q2.51-26.5 2.78-26.83 3.04-27.15 3.54-27.15L3.54-27.15 11.56-27.15 13.78-32.3Q14.07-32.91 14.73-32.91L14.73-32.91Q15.02-32.91 15.18-32.79L15.18-32.79Q15.76-32.46 15.76-31.89L15.76-31.89Q15.76-31.64 15.63-31.39L15.63-31.39 13.82-27.15 32.17-27.15Q32.67-27.15 32.93-26.83 33.2-26.5 33.2-26.13L33.2-26.13Q33.2-25.76 32.93-25.43 32.67-25.1 32.17-25.1L32.17-25.1 12.88-25.1Q10.9-20.74 8.23-15.55L8.23-15.55Q8.02-15.14 8.02-14.89L8.02-14.89Q8.02-14.48 8.72-14.48L8.72-14.48 17.77-14.48 17.77-21.44Q17.77-21.93 18.1-22.2 18.43-22.46 18.8-22.46L18.8-22.46Q19.17-22.46 19.5-22.2 19.83-21.93 19.83-21.44L19.83-21.44 19.83-14.48 30.69-14.48Q31.19-14.48 31.45-14.15 31.72-13.82 31.72-13.45L31.72-13.45Q31.72-13.08 31.45-12.75 31.19-12.43 30.69-12.43L30.69-12.43ZM11.36-8.6Q11.68-8.35 11.68-7.86L11.68-7.86Q11.68-7.53 11.44-7.16L11.44-7.16Q7.9-2.14 4.03 1.73L4.03 1.73Q3.66 2.1 3.25 2.1L3.25 2.1Q2.92 2.1 2.55 1.81L2.55 1.81Q2.18 1.52 2.18 1.03L2.18 1.03Q2.18 0.66 2.47 0.37L2.47 0.37Q6.34-3.5 9.87-8.52L9.87-8.52Q10.12-8.89 10.57-8.89L10.57-8.89Q10.99-8.89 11.36-8.6L11.36-8.6ZM33.12 0Q33.37 0.29 33.37 0.7L33.37 0.7Q33.37 1.19 33.04 1.44L33.04 1.44Q32.67 1.73 32.3 1.73L32.3 1.73Q31.8 1.73 31.56 1.36L31.56 1.36Q27.85-3.04 23.9-7.16L23.9-7.16Q23.62-7.45 23.62-7.82L23.62-7.82Q23.62-8.31 23.99-8.6L23.99-8.6Q24.36-8.89 24.69-8.89L24.69-8.89Q25.1-8.89 25.47-8.52L25.47-8.52Q29.42-4.36 33.12 0L33.12 0ZM68.83-29.17Q69.33-29.17 69.59-28.84 69.86-28.51 69.86-28.14L69.86-28.14Q69.86-27.77 69.59-27.44 69.33-27.11 68.83-27.11L68.83-27.11 61.18-27.11 61.18-24.48Q61.18-23.99 60.85-23.72 60.52-23.45 60.15-23.45L60.15-23.45Q59.78-23.45 59.45-23.72 59.12-23.99 59.12-24.48L59.12-24.48 59.12-27.11 48.96-27.11 48.96-24.48Q48.96-23.99 48.63-23.72 48.3-23.45 47.93-23.45L47.93-23.45Q47.56-23.45 47.23-23.72 46.9-23.99 46.9-24.48L46.9-24.48 46.9-27.11 39.17-27.11Q38.67-27.11 38.41-27.44 38.14-27.77 38.14-28.14L38.14-28.14Q38.14-28.51 38.41-28.84 38.67-29.17 39.17-29.17L39.17-29.17 46.9-29.17 46.9-31.97Q46.9-32.46 47.23-32.73 47.56-33 47.93-33L47.93-33Q48.3-33 48.63-32.73 48.96-32.46 48.96-31.97L48.96-31.97 48.96-29.17 59.12-29.17 59.12-31.97Q59.12-32.46 59.45-32.73 59.78-33 60.15-33L60.15-33Q60.52-33 60.85-32.73 61.18-32.46 61.18-31.97L61.18-31.97 61.18-29.17 68.83-29.17ZM63.4-21.44Q66.08-21.44 67.62-20.14 69.16-18.84 69.16-16.91L69.16-16.91 69.16-16.05Q69.16-15.55 68.83-15.28 68.5-15.02 68.13-15.02L68.13-15.02Q67.76-15.02 67.43-15.28 67.1-15.55 67.1-16.05L67.1-16.05 67.1-16.5Q67.1-17.81 66.08-18.6 65.05-19.38 62.99-19.38L62.99-19.38 44.68-19.38Q42.62-19.38 41.6-18.6 40.57-17.81 40.57-16.5L40.57-16.5 40.57-16.05Q40.57-15.55 40.24-15.28 39.91-15.02 39.54-15.02L39.54-15.02Q39.17-15.02 38.84-15.28 38.51-15.55 38.51-16.05L38.51-16.05 38.51-16.91Q38.51-19.09 40.01-20.26 41.51-21.44 44.27-21.44L44.27-21.44 52.99-21.44 52.99-24.32Q52.99-24.81 53.32-25.08 53.65-25.34 54.02-25.34L54.02-25.34Q54.39-25.34 54.72-25.08 55.05-24.81 55.05-24.32L55.05-24.32 55.05-21.44 63.4-21.44ZM62.87-13.29L44.72-13.29Q44.23-13.29 43.96-13.62 43.69-13.95 43.69-14.32L43.69-14.32Q43.69-14.69 43.96-15.02 44.23-15.35 44.72-15.35L44.72-15.35 62.87-15.35Q63.36-15.35 63.63-15.02 63.89-14.69 63.89-14.32L63.89-14.32Q63.89-13.95 63.63-13.62 63.36-13.29 62.87-13.29L62.87-13.29ZM68.05-8.97Q68.54-8.97 68.81-8.64 69.08-8.31 69.08-7.94L69.08-7.94Q69.08-7.57 68.81-7.24 68.54-6.91 68.05-6.91L68.05-6.91 58.46-6.91 58.46-3.54Q58.46-1.89 58.71-0.97 58.96-0.04 59.74 0.43 60.52 0.91 62.13 0.91L62.13 0.91Q64.22 0.91 65.11 0.56 65.99 0.21 66.57-0.58L66.57-0.58Q66.94-1.07 67.43-1.07L67.43-1.07Q67.93-1.07 68.17-0.74 68.42-0.41 68.42 0L68.42 0Q68.42 0.29 68.3 0.53L68.3 0.53Q66.86 2.96 62.5 2.96L62.5 2.96 61.22 2.96Q58.75 2.96 57.58 1.56 56.41 0.16 56.41-2.3L56.41-2.3 56.41-6.91 50.15-6.91Q50.03-3.83 49.02-1.87 48.01 0.08 45.92 1.42 43.82 2.76 40.11 3.99L40.11 3.99Q39.79 4.07 39.7 4.07L39.7 4.07Q39.13 4.07 38.8 3.37L38.8 3.37Q38.72 3.13 38.72 3L38.72 3Q38.72 2.43 39.37 2.1L39.37 2.1Q42.95 0.86 44.68-0.14 46.41-1.15 47.19-2.67 47.97-4.2 48.14-6.91L48.14-6.91 39.66-6.91Q39.17-6.91 38.9-7.24 38.63-7.57 38.63-7.94L38.63-7.94Q38.63-8.31 38.9-8.64 39.17-8.97 39.66-8.97L39.66-8.97 68.05-8.97ZM89.4-28.64L88.09-31.52Q88-31.68 88-31.97L88-31.97Q88-32.67 88.58-32.87L88.58-32.87Q88.83-32.96 89.03-32.96L89.03-32.96Q89.69-32.96 89.94-32.38L89.94-32.38 91.25-29.5Q91.34-29.33 91.34-29.05L91.34-29.05Q91.34-28.76 91.17-28.49 91.01-28.22 90.76-28.14L90.76-28.14Q90.51-28.06 90.31-28.06L90.31-28.06Q89.69-28.06 89.4-28.64L89.4-28.64ZM104.83-27.52Q105.33-27.52 105.59-27.2 105.86-26.87 105.86-26.5L105.86-26.5Q105.86-26.13 105.59-25.8 105.33-25.47 104.83-25.47L104.83-25.47 91.01-25.47 91.01-18.84 96.4-18.84Q99.52-18.84 101.05-17.12 102.57-15.39 102.57-13.04L102.57-13.04 102.57-4.65Q102.57-2.96 101.54-2.04 100.51-1.11 98.87-1.03L98.87-1.03Q98.41-0.99 98.13-1.32 97.84-1.65 97.84-2.02L97.84-2.02Q97.84-2.92 98.74-3.09L98.74-3.09Q99.81-3.29 100.16-3.83 100.51-4.36 100.51-5.88L100.51-5.88 100.51-12.84Q100.51-14.44 99.52-15.61 98.54-16.79 95.99-16.79L95.99-16.79 91.01-16.79 91.01 3.09Q91.01 3.58 90.68 3.85 90.35 4.11 89.98 4.11L89.98 4.11Q89.61 4.11 89.28 3.85 88.95 3.58 88.95 3.09L88.95 3.09 88.95-16.79 83.97-16.79Q81.42-16.79 80.43-15.61 79.45-14.44 79.45-12.84L79.45-12.84 79.45-1.07Q79.45-0.58 79.12-0.31 78.79-0.04 78.42-0.04L78.42-0.04Q78.05-0.04 77.72-0.31 77.39-0.58 77.39-1.07L77.39-1.07 77.39-13.04Q77.39-15.39 78.91-17.12 80.43-18.84 83.56-18.84L83.56-18.84 88.95-18.84 88.95-25.47 75.13-25.47Q74.63-25.47 74.37-25.8 74.1-26.13 74.1-26.5L74.1-26.5Q74.1-26.87 74.37-27.2 74.63-27.52 75.13-27.52L75.13-27.52 104.83-27.52ZM123.26-4.32Q123.68-3.99 123.68-3.5L123.68-3.5Q123.68-3.17 123.43-2.84L123.43-2.84 119.68 1.69Q119.36 2.06 118.86 2.06L118.86 2.06Q118.45 2.06 118.2 1.81L118.2 1.81Q117.83 1.52 117.83 1.03L117.83 1.03Q117.83 0.66 118.12 0.37L118.12 0.37 118.41 0 118.41-14.24 115.16-14.24Q115.16-9.59 114.99-7.06 114.83-4.53 114.13-2.06 113.43 0.41 111.83 3.13L111.83 3.13Q111.46 3.66 110.96 3.66L110.96 3.66Q110.67 3.66 110.43 3.5L110.43 3.5Q109.89 3.21 109.89 2.59L109.89 2.59Q109.89 2.35 110.02 2.1L110.02 2.1Q111.46-0.37 112.09-2.37 112.73-4.36 112.92-6.38 113.1-8.39 113.1-11.85L113.1-11.85 113.1-14.24 110.88-14.24Q110.39-14.24 110.12-14.56 109.85-14.89 109.85-15.26L109.85-15.26Q109.85-15.63 110.12-15.96 110.39-16.29 110.88-16.29L110.88-16.29 115.61-16.29 115.61-31.93Q115.61-32.42 115.94-32.69 116.27-32.96 116.64-32.96L116.64-32.96Q117.01-32.96 117.34-32.69 117.67-32.42 117.67-31.93L117.67-31.93 117.67-16.29 122.52-16.29Q123.02-16.29 123.28-15.96 123.55-15.63 123.55-15.26L123.55-15.26Q123.55-14.89 123.28-14.56 123.02-14.24 122.52-14.24L122.52-14.24 120.47-14.24 120.47-2.51 121.82-4.16Q122.19-4.57 122.61-4.57L122.61-4.57Q122.93-4.57 123.26-4.32L123.26-4.32ZM125.12-23.74Q124.75-23.74 124.42-24.01 124.09-24.27 124.09-24.77L124.09-24.77 124.09-25.55Q124.09-27.61 125.42-28.82 126.76-30.03 129.44-30.03L129.44-30.03 136.51-30.03Q139.1-30.03 140.48-28.72 141.86-27.4 141.86-25.55L141.86-25.55 141.86-24.77Q141.86-24.27 141.53-24.01 141.2-23.74 140.83-23.74L140.83-23.74Q140.46-23.74 140.13-24.01 139.8-24.27 139.8-24.77L139.8-24.77 139.8-25.14Q139.8-26.37 138.94-27.17 138.08-27.98 136.1-27.98L136.1-27.98 129.85-27.98Q127.87-27.98 127.01-27.17 126.14-26.37 126.14-25.14L126.14-25.14 126.14-24.77Q126.14-24.27 125.81-24.01 125.49-23.74 125.12-23.74L125.12-23.74ZM120.18-19.21Q119.77-19.21 119.42-19.6 119.07-20 119.19-20.53L119.19-20.53 121.33-27.98Q121.45-28.43 121.87-28.59 122.28-28.76 122.65-28.64L122.65-28.64Q123.02-28.47 123.24-28.16 123.47-27.85 123.35-27.36L123.35-27.36 121.21-20Q121.08-19.63 120.8-19.42 120.51-19.21 120.18-19.21L120.18-19.21ZM112.16-20.04L110.18-27.28Q110.02-27.85 110.43-28.22 110.84-28.59 111.21-28.59L111.21-28.59Q111.54-28.59 111.83-28.41 112.11-28.22 112.2-27.85L112.2-27.85 114.17-20.57Q114.29-20.04 113.95-19.65 113.6-19.25 113.18-19.25L113.18-19.25Q112.85-19.25 112.55-19.46 112.24-19.67 112.16-20.04L112.16-20.04ZM141.49-4.65Q141.98-4.65 142.25-4.32 142.52-3.99 142.52-3.62L142.52-3.62Q142.52-3.25 142.25-2.92 141.98-2.59 141.49-2.59L141.49-2.59 134.45-2.59 134.45 3.13Q134.45 3.62 134.13 3.89 133.8 4.16 133.43 4.16L133.43 4.16Q133.06 4.16 132.73 3.89 132.4 3.62 132.4 3.13L132.4 3.13 132.4-2.59 125.4-2.59Q124.91-2.59 124.64-2.92 124.37-3.25 124.37-3.62L124.37-3.62Q124.37-3.99 124.64-4.32 124.91-4.65 125.4-4.65L125.4-4.65 132.4-4.65 132.4-10.04 127.42-10.04Q126.35-10.04 125.81-10.66 125.28-11.27 125.28-12.14L125.28-12.14Q125.28-12.75 125.53-13.25L125.53-13.25Q126.88-16.17 128.2-19.42L128.2-19.42 125.16-19.42Q124.66-19.42 124.4-19.75 124.13-20.08 124.13-20.45L124.13-20.45Q124.13-20.82 124.4-21.15 124.66-21.48 125.16-21.48L125.16-21.48 129.02-21.48Q129.89-23.62 130.63-25.8L130.63-25.8Q130.83-26.45 131.62-26.45L131.62-26.45Q131.86-26.45 131.95-26.41L131.95-26.41Q132.27-26.33 132.5-25.94 132.73-25.55 132.56-25.14L132.56-25.14Q131.99-23.45 131.53-22.26L131.53-22.26 131.25-21.48 140.42-21.48Q140.91-21.48 141.18-21.15 141.45-20.82 141.45-20.45L141.45-20.45Q141.45-20.08 141.18-19.75 140.91-19.42 140.42-19.42L140.42-19.42 130.46-19.42Q129.35-16.62 127.75-12.92L127.75-12.92Q127.58-12.59 127.58-12.38L127.58-12.38Q127.58-12.22 127.81-12.16 128.04-12.1 128.65-12.1L128.65-12.1 132.4-12.1 132.4-16.5Q132.4-16.99 132.73-17.26 133.06-17.53 133.43-17.53L133.43-17.53Q133.8-17.53 134.13-17.26 134.45-16.99 134.45-16.5L134.45-16.5 134.45-12.1 140.13-12.1Q140.63-12.1 140.89-11.77 141.16-11.44 141.16-11.07L141.16-11.07Q141.16-10.7 140.89-10.37 140.63-10.04 140.13-10.04L140.13-10.04 134.45-10.04 134.45-4.65 141.49-4.65ZM177.16-2.06Q177.53-2.06 177.84-1.69 178.15-1.32 178.07-0.91L178.07-0.91Q177.7 0.7 176.42 1.54 175.15 2.39 173.13 2.39L173.13 2.39 172.02 2.39Q169.88 2.39 168.62 1.07 167.37-0.25 167.37-2.55L167.37-2.55 167.37-23.86Q167.37-25.47 166.36-26.64 165.35-27.81 162.84-27.81L162.84-27.81 158.93-27.81Q156.43-27.81 155.42-26.64 154.41-25.47 154.41-23.86L154.41-23.86 154.41-21.72Q154.41-13.41 154.02-9.36 153.63-5.31 152.35-2.63 151.08 0.04 148.2 3.21L148.2 3.21Q147.87 3.58 147.46 3.58L147.46 3.58Q147.04 3.58 146.76 3.29L146.76 3.29Q146.43 2.96 146.43 2.51L146.43 2.51Q146.43 2.1 146.67 1.85L146.67 1.85Q149.55-1.4 150.69-3.97 151.82-6.54 152.08-10 152.35-13.45 152.35-21.72L152.35-21.72 152.35-24.07Q152.35-26.41 153.87-28.14 155.4-29.87 158.52-29.87L158.52-29.87 163.25-29.87Q166.38-29.87 167.9-28.14 169.43-26.41 169.43-24.07L169.43-24.07 169.43-3.79Q169.43-1.6 170.17-0.64 170.91 0.33 172.43 0.33L172.43 0.33Q174.28 0.33 175.06-0.06 175.84-0.45 176.09-1.15L176.09-1.15Q176.26-1.56 176.54-1.81 176.83-2.06 177.16-2.06L177.16-2.06ZM157.91-19.71L165.02-10.94Q165.27-10.66 165.27-10.33L165.27-10.33Q165.27-9.79 164.86-9.5L164.86-9.5Q164.53-9.26 164.2-9.26L164.2-9.26Q163.71-9.26 163.42-9.67L163.42-9.67 156.3-18.39Q156.05-18.72 156.05-19.05L156.05-19.05Q156.05-19.58 156.47-19.87L156.47-19.87Q156.75-20.08 157.17-20.08L157.17-20.08Q157.66-20.08 157.91-19.71L157.91-19.71Z" transform="translate(-2.180000066757202, 33)"></path></g> <!----> <!----> <!----> <!----> <!----> <!----> <!----></g></g> <g data-gra="path-slogan" fill-rule="" class="tp-slogan iconsvg-slogansvg" fill="#26333b" transform="translate(5,43.15999984741211)"><rect x="0" height="1" y="3.9750003814697266" width="21.758209228515625"></rect> <rect height="1" y="3.9750003814697266" width="21.758209228515625" x="144.14820861816406"></rect> <g transform="translate(24.758209228515625,0)"><g transform="scale(1)"><path d="M4.41 0L0.94 0L0.94-8.58L4.45-8.58Q7.92-8.39 8.06-4.41L8.06-4.41Q7.88-0.09 4.41 0L4.41 0ZM4.27-7.64L2.11-7.64L2.11-0.98L4.36-0.98Q6.80-1.13 6.89-4.31L6.89-4.31Q6.84-7.55 4.27-7.64L4.27-7.64ZM16.31-4.27L16.31-4.27Q16.13-7.64 13.31-7.83L13.31-7.83Q10.45-7.69 10.31-4.27L10.31-4.27Q10.45-0.94 13.31-0.80L13.31-0.80Q16.13-0.98 16.31-4.27ZM17.48-4.27L17.48-4.27Q17.20 0 13.31 0.14L13.31 0.14Q9.38 0 9.09-4.27L9.09-4.27Q9.33-8.72 13.31-8.81L13.31-8.81Q17.20-8.67 17.48-4.27ZM20.25-8.58L24.56-1.64L24.56-8.58L25.69-8.58L25.69 0L24.38 0L20.02-6.94L19.97-6.94L19.97 0L18.84 0L18.84-8.58L20.25-8.58ZM33.89-3.61L31.27-3.61L31.27-4.59L35.02-4.59L35.02 0L34.27 0L33.98-1.08Q33 0.09 31.17 0.14L31.17 0.14Q29.44 0.14 28.50-0.75L28.50-0.75Q27.09-2.06 27.14-4.36L27.14-4.36Q27.47-8.63 31.22-8.81L31.22-8.81Q34.41-8.63 34.88-6L34.88-6L33.75-6Q33.28-7.78 31.17-7.83L31.17-7.83Q28.50-7.64 28.36-4.31L28.36-4.31Q28.36-0.75 31.22-0.75L31.22-0.75Q32.25-0.75 33-1.31L33-1.31Q33.94-2.06 33.89-3.61L33.89-3.61ZM43.22-3.61L40.59-3.61L40.59-4.59L44.34-4.59L44.34 0L43.59 0L43.31-1.08Q42.33 0.09 40.50 0.14L40.50 0.14Q38.77 0.14 37.83-0.75L37.83-0.75Q36.42-2.06 36.47-4.36L36.47-4.36Q36.80-8.63 40.55-8.81L40.55-8.81Q43.73-8.63 44.20-6L44.20-6L43.08-6Q42.61-7.78 40.50-7.83L40.50-7.83Q37.83-7.64 37.69-4.31L37.69-4.31Q37.69-0.75 40.55-0.75L40.55-0.75Q41.58-0.75 42.33-1.31L42.33-1.31Q43.27-2.06 43.22-3.61L43.22-3.61ZM51.80-3.19L51.80-8.58L52.97-8.58L52.97-3.05Q52.83 0.05 49.45 0.14L49.45 0.14Q46.31 0.05 46.17-2.86L46.17-2.86L46.17-8.58L47.34-8.58L47.34-3.19Q47.39-0.84 49.50-0.80L49.50-0.80Q51.80-0.84 51.80-3.19L51.80-3.19ZM60.42 0L59.58-2.48L56.11-2.48L55.22 0L54.05 0L57.28-8.58L58.59-8.58L61.69 0L60.42 0ZM57.84-7.31L56.48-3.52L59.16-3.52L57.89-7.31L57.84-7.31ZM64.13-8.58L68.44-1.64L68.44-8.58L69.56-8.58L69.56 0L68.25 0L63.89-6.94L63.84-6.94L63.84 0L62.72 0L62.72-8.58L64.13-8.58ZM75.84-5.06L80.34-5.06L80.34-8.58L81.52-8.58L81.52 0L80.34 0L80.34-3.98L75.84-3.98L75.84 0L74.67 0L74.67-8.58L75.84-8.58L75.84-5.06ZM88.97-3.19L88.97-8.58L90.14-8.58L90.14-3.05Q90 0.05 86.63 0.14L86.63 0.14Q83.48 0.05 83.34-2.86L83.34-2.86L83.34-8.58L84.52-8.58L84.52-3.19Q84.56-0.84 86.67-0.80L86.67-0.80Q88.97-0.84 88.97-3.19L88.97-3.19ZM92.11-8.58L93.28-8.58L93.28 0L92.11 0L92.11-8.58ZM100.78-3.89L96.56-3.89L96.56 0L95.39 0L95.39-8.58L101.34-8.58L101.34-7.59L96.56-7.59L96.56-4.92L100.78-4.92L100.78-3.89ZM108.19 0L107.34-2.48L103.88-2.48L102.98 0L101.81 0L105.05-8.58L106.36-8.58L109.45 0L108.19 0ZM105.61-7.31L104.25-3.52L106.92-3.52L105.66-7.31L105.61-7.31ZM111.89-8.58L116.20-1.64L116.20-8.58L117.33-8.58L117.33 0L116.02 0L111.66-6.94L111.61-6.94L111.61 0L110.48 0L110.48-8.58L111.89-8.58Z" transform="translate(-0.9375, 8.8125)"></path></g></g></g></g></g><defs v-gra="od"></defs></svg>